Coordinates
version=1
nRows=7
nColumns=33
inDegrees=yes

Units are S.I. units (second, meters, Newtons, ...)
Angles are in degrees.

endheader
time	ground_thorax_rot_x	ground_thorax_rot_y	ground_thorax_rot_z	ground_thorax_tx	ground_thorax_ty	ground_thorax_tz	clav_prot_r	clav_elev_r	scapula_abduction_r	scapula_elevation_r	scapula_upward_rot_r	scapula_winging_r	shoulder_elv_r	plane_of_elev_r	axial_rot_r	elbow_flexion_r	pro_sup_r	wrist_flex_r	wrist_dev_r	clav_prot_l	clav_elev_l	scapula_abduction_l	scapula_elevation_l	scapula_upward_rot_l	scapula_winging_l	shoulder_elv_l	plane_of_elev_l	axial_rot_l	elbow_flexion_l	pro_sup_l	wrist_flex_l	wrist_dev_l
      5.24000000	     39.10296539	      6.16997015	      7.56596080	   -246.29980247	    849.92255507	      7.35240779	     13.03969238	     35.90068154	     35.55355772	     45.00000000	    -45.00000000	   2075.65748733	  -3704.04991334	    143.17518024	    179.99999979	   1813.44658378	     58.47998445	     23.60354626	      5.86847857	      8.88911009	    -45.00000000	    -38.62942543	     45.00000000	    -45.00000000	  -2421.91764772	   -450.93399515	    135.63289106	   -179.99999979	    372.46757583	     49.38681176	      2.97564753	    -22.60106923
      5.25000000	     39.13216021	      6.30995002	      7.75284862	   -245.98198999	    849.55286409	      7.34930698	     12.60086119	     36.05143867	     35.62452062	     45.00000000	    -45.00000000	   2075.73861050	  -3704.02837852	    143.34300644	    179.99999979	   1813.45890812	     58.55655758	     23.28839916	      5.81152423	      9.01162592	    -45.00000000	    -38.76733911	     45.00000000	    -45.00000000	  -2422.02366411	   -451.10594891	    135.79811565	   -179.99999979	    372.30599131	     49.36728506	      2.96665327	    -22.60318019
      5.26000000	     39.13852828	      6.13235229	      7.58128170	   -245.62192447	    849.19670364	      7.35006141	     12.96313286	     35.81512340	     35.50960055	     45.00000000	    -45.00000000	   2075.66310125	  -3703.96383822	    142.95547849	    179.99999979	   1813.46139446	     58.60967151	     23.63112032	      5.88438318	      9.03156108	    -45.00000000	    -38.68245458	     45.00000000	    -45.00000000	  -2421.95185575	   -451.00424329	    135.54374328	   -179.99999979	    372.43398320	     49.30780815	      2.97819540	    -22.57782763
      5.27000000	     39.13449261	      6.22472601	      7.68054834	   -245.21605848	    848.85383669	      7.35056587	     12.77625552	     36.06224511	     35.61852343	     45.00000000	    -45.00000000	   2075.74470491	  -3704.06073223	    143.21202702	    179.99999979	   1813.58521370	     58.56110108	     23.35554792	      5.79735565	      8.98768009	    -45.00000000	    -38.73745683	     45.00000000	    -45.00000000	  -2422.07064507	   -451.06768140	    135.69137854	   -179.99999979	    372.50956216	     49.24561757	      2.95449338	    -22.61599047
      5.28000000	     39.10132024	      6.32911643	      7.85764985	   -244.76886656	    848.52127846	      7.34975450	     12.95087264	     35.82640362	     35.62545844	     45.00000000	    -45.00000000	   2075.64573450	  -3704.09935429	    143.04488539	    179.99999979	   1813.51796573	     58.51617271	     23.56805490	      5.88259047	      9.02070615	    -45.00000000	    -38.67389700	     45.00000000	    -45.00000000	  -2421.98136092	   -451.02254288	    135.60969219	   -179.99999979	    372.44625220	     49.19237896	      2.95380597	    -22.53557716
      5.29000000	     39.06902961	      6.29913077	      7.81279120	   -244.27553449	    848.18882015	      7.34636417	     12.82034179	     36.18499498	     35.77737584	     45.00000000	    -45.00000000	   2075.85722647	  -3704.16201311	    143.32880412	    179.99999979	   1813.58624047	     58.38774002	     23.33255884	      5.80375166	      9.00111603	    -45.00000000	    -38.84733965	     45.00000000	    -45.00000000	  -2422.15868484	   -450.96419242	    135.75620763	   -179.99999979	    372.49916439	     49.12609260	      2.95796396	    -22.58390206
      5.30000000	     39.09654075	      6.36379127	      7.80871208	   -243.73783839	    847.85303288	      7.33921159	     12.95420129	     35.86632367	     35.74034840	     45.00000000	    -45.00000000	   2075.63752227	  -3704.12059431	    143.01996024	    179.99999979	   1813.50010118	     58.26282084	     23.55912093	      5.94533528	      8.98066334	    -45.00000000	    -38.76590163	     45.00000000	    -45.00000000	  -2422.10970223	   -450.93070837	    135.51265591	   -179.99999979	    372.50695025	     49.03299606	      2.95453015	    -22.52957499
